<svg xmlns="http://www.w3.org/2000/svg" style="width:5rem;height:5rem;margin:10px" xml:space="preserve" viewBox="0 0 50 50"><path d="M50 25C50 11.2 38.8 0 25 0S0 11.2 0 25c0 8.2 3.9 15.4 10 20 .1.1.2.1.2.2 4.1 3 9.2 4.8 14.8 4.8 5.5 0 10.6-1.8 14.7-4.8.1-.1.2-.1.3-.2 6.1-4.6 10-11.9 10-20zM12.6 43.2c1-6 6.2-10.4 12.4-10.4s11.4 4.4 12.4 10.4C33.9 45.6 29.6 47 25 47c-4.6 0-8.9-1.4-12.4-3.8zm4.5-21.3c0-4.4 3.5-7.9 7.9-7.9s7.9 3.5 7.9 7.9-3.5 7.9-7.9 7.9-7.9-3.6-7.9-7.9zM40 41.1c-1.3-4.6-4.7-8.3-9-10.1 3-2 4.9-5.3 4.9-9.1C35.9 15.9 31 11 25 11s-10.9 4.9-10.9 10.9c0 3.8 2 7.1 4.9 9.1-4.3 1.8-7.7 5.5-9 10.1-4.3-4-7-9.7-7-16.1C3 12.9 12.9 3 25 3s22 9.9 22 22c0 6.3-2.7 12.1-7 16.1z"/></svg>