<svg xmlns="http://www.w3.org/2000/svg" style="width:5rem;height:5rem;margin:10px" viewBox="0 0 69.54 100"><path d="M3.91 96.31h6.86v3.33H0V82.1h3.91v14.21Zm21.2-3.17c.07.9-.05 1.81-.36 2.67-.31.85-.79 1.63-1.41 2.28-.63.65-1.38 1.15-2.21 1.48-.83.33-1.73.47-2.62.42-.86.05-1.73-.08-2.54-.39a6.17 6.17 0 0 1-3.56-3.59c-.31-.82-.45-1.69-.4-2.57-.07-.92.05-1.84.37-2.7.31-.86.81-1.65 1.45-2.3.64-.65 1.41-1.15 2.26-1.47a6.04 6.04 0 0 1 2.66-.37c.85-.04 1.7.11 2.5.43.79.32 1.51.8 2.11 1.42.6.62 1.06 1.35 1.37 2.16.3.81.43 1.68.38 2.54Zm-3.93-.02c0-1.87-.72-3.81-2.5-3.81s-2.54 2.03-2.56 3.89c.02 2.25.91 3.77 2.56 3.77s2.5-1.53 2.5-3.86Zm13.21-6.6c-.77.03-1.51.3-2.12.78-.61.48-1.05 1.14-1.27 1.89l-.16-2.28h-3.33v4.2l.07 8.49h3.91v-6.46c-.02-.3-.02-.59 0-.89.13-.61.48-1.14.97-1.51.49-.37 1.1-.55 1.71-.5.35-.04.71-.04 1.06 0v-3.72c-.28-.04-.56-.04-.83 0Zm13.85 6.41c.04.52.04 1.04 0 1.55l-8.18.05c0 1.64 1.73 2.42 3.55 2.42a11 11 0 0 0 3.46-.52l.49 2.67c-1.43.56-2.96.83-4.5.8-.88.11-1.78.03-2.62-.25-.84-.28-1.62-.75-2.26-1.37a6.033 6.033 0 0 1-1.47-2.22 6.09 6.09 0 0 1-.39-2.64c-.06-.88.06-1.76.35-2.59.29-.83.75-1.59 1.34-2.23a6.285 6.285 0 0 1 4.63-2.02c4.07 0 5.6 3.22 5.6 6.36Zm-3.77-2.06c-.09-.31-.25-.6-.47-.84a2.275 2.275 0 0 0-1.7-.77c-.65.05-1.25.34-1.7.81-.45.48-.7 1.11-.71 1.76h4.65c.04-.32.01-.65-.08-.96Zm20.85-4.19c-.83 0-1.65.21-2.38.62-.64.41-1.2.95-1.64 1.57-.27-.69-.75-1.28-1.36-1.69-.62-.41-1.34-.61-2.07-.59-.75-.02-1.5.15-2.16.51-.67.36-1.23.88-1.64 1.52l-.13-1.71h-3.33v4.06l.09 8.76h3.8v-7.41c-.02-.35.04-.7.16-1.03a2.016 2.016 0 0 1 1.82-1.42c1.26 0 1.82 1.09 1.82 2.69v7.25h3.8v-7.44c-.04-.34-.04-.69 0-1.03.12-.4.36-.74.69-.99.33-.25.72-.39 1.13-.4 1.26 0 1.84 1.1 1.84 2.92v6.84h3.8V92.2c0-3.81-1.82-5.54-4.23-5.54ZM2.07 60.27l30.1.14.04-8.26-21.98-.09.07-18.87 20.65-21.24 25.13 25.16 6.47-6.66L32.14 0 21.78 10.68l-.4-8.33-6.09.32.67 13.98L2.34 30.66h-.16v.16l-.36.36.36.36-.11 28.72Zm6.25 10.36h24.55v-5.95H8.31v5.95Z"/></svg>