<svg xmlns="http://www.w3.org/2000/svg" style="width:5rem;height:5rem;margin:10px" viewBox="0 0 100 72.59"><path d="M73.83 35.01c1.03-.35 2.06-.69 3.08-1.04.37-.12.74-.23 1.1-.34v15.74l-.37-.35c-.9-.83-1.74-1.74-2.62-2.59-.84-.89-1.7-1.76-2.52-2.67-.41-.45-.83-.9-1.23-1.35l-1.19-1.39c-.41-.45-.78-.93-1.17-1.4-.39-.47-.78-.93-1.15-1.42l-.69-.89c.21-.07.42-.15.63-.22 1.01-.36 2.03-.7 3.04-1.07 1.01-.37 2.06-.68 3.09-1.02Zm4.19-10.88c-.57.17-1.15.34-1.74.51-.91.25-1.82.56-2.76.85-.94.3-1.9.58-2.88.88-.97.31-1.98.56-2.98.9-1 .33-2.01.65-3.03.97-1.02.32-2.05.64-3.08.96-.04.01-.07.02-.11.04l.06.09c.64 1.02 1.29 2.04 1.98 3.03.29.44.6.87.9 1.3.08-.04.16-.07.25-.11.51-.2 1.01-.4 1.53-.6 1.02-.4 2.05-.81 3.09-1.2 1.04-.39 2.1-.72 3.15-1.09 1.06-.34 2.12-.69 3.17-1.03.82-.26 1.64-.47 2.46-.69v-4.82Zm-28.44-4.86c-.44.38-.87.75-1.3 1.14-.73.71-1.48 1.41-2.23 2.1-.74.71-1.52 1.38-2.21 2.13-.71.74-1.43 1.46-2.15 2.19-.74.71-1.4 1.48-2.08 2.25-.68.76-1.39 1.5-2.05 2.28-.65.79-1.3 1.58-1.96 2.36-.68.77-1.26 1.6-1.89 2.41l-.94 1.22c-.28.36-.53.73-.79 1.1.87-.66 1.83-1.37 2.89-2.05.7-.46 1.43-.96 2.2-1.42.78-.46 1.59-.93 2.41-1.42.21-.12.42-.24.63-.37.22-.11.43-.23.65-.34l1.32-.69c.45-.23.9-.46 1.36-.7.46-.23.92-.47 1.4-.68.95-.44 1.92-.88 2.9-1.32.49-.22.98-.45 1.49-.66.51-.2 1.01-.4 1.53-.6.87-.34 1.75-.69 2.63-1.02-.25-.44-.5-.88-.74-1.32-.61-1.15-1.2-2.31-1.75-3.49-.47-1.01-.92-2.03-1.33-3.08Zm27.53 33.18c-.49-.32-.97-.65-1.45-.98-.53-.35-1.04-.73-1.55-1.11-.51-.38-1.03-.76-1.53-1.15-.99-.81-2.02-1.58-2.97-2.43-.48-.42-.97-.84-1.44-1.27l-1.41-1.31c-.48-.43-.92-.9-1.37-1.35-.45-.46-.91-.91-1.35-1.38-.44-.47-.89-.93-1.32-1.41l-.75-.86s-.1.04-.15.05c-.96.34-1.87.75-2.79 1.09-.91.36-1.81.69-2.67 1.06-.86.36-1.7.71-2.51 1.04-.82.32-1.57.7-2.33 1.02-.75.32-1.47.64-2.14.96-.68.32-1.32.62-1.92.9-1.19.6-2.25 1.09-3.09 1.55-.85.45-1.52.81-1.96 1.07-.45.26-.69.41-.69.41s.17-.22.52-.61c.17-.2.4-.43.67-.7.26-.28.57-.59.94-.91.36-.33.75-.71 1.21-1.09.45-.39.94-.78 1.47-1.22 1.08-.82 2.31-1.77 3.71-2.68.7-.46 1.43-.96 2.2-1.42l2.41-1.42c.21-.12.42-.24.63-.37.22-.11.43-.23.65-.34l1.32-.69c.45-.23.9-.46 1.36-.7.16-.08.31-.16.47-.24-.1-.13-.2-.25-.29-.38-.79-1.02-1.54-2.07-2.28-3.13-.31-.44-.61-.9-.91-1.35-.15.05-.3.1-.44.15-1.01.37-2.03.72-3.04 1.07-2.03.67-3.97 1.47-5.89 2.14-.96.34-1.87.75-2.79 1.09-.91.36-1.81.69-2.67 1.06-.86.36-1.7.71-2.51 1.04-.82.32-1.57.7-2.33 1.02-.75.32-1.47.64-2.14.96-.68.32-1.32.62-1.92.9-.86.43-1.66.81-2.35 1.17l-.45.7c-.28.43-.57.86-.82 1.31l-.78 1.33c-.27.44-.53.89-.77 1.34-.49.91-.99 1.82-1.43 2.75-.47.93-.89 1.88-1.31 2.84-.07.15-.12.31-.19.47a5.517 5.517 0 0 0 4.59 2.48h43.93c1.91 0 3.6-.99 4.59-2.48Zm-53.43-2.27c.09-.53.23-1.04.36-1.56.14-.52.25-1.04.41-1.55l.48-1.53c.3-1.03.72-2.02 1.09-3.03.38-1.01.84-1.97 1.27-2.96.21-.5.45-.98.69-1.45l.74-1.44c.25-.47.48-.97.76-1.43l.81-1.39c.56-.92 1.08-1.87 1.69-2.75.59-.9 1.2-1.79 1.8-2.68.62-.88 1.29-1.72 1.93-2.59.66-.85 1.3-1.72 2.02-2.52.7-.82 1.39-1.64 2.1-2.45.69-.83 1.47-1.57 2.2-2.35.74-.78 1.49-1.55 2.25-2.31.77-.74 1.57-1.46 2.36-2.19.79-.73 1.58-1.45 2.38-2.17l3.46-3.1 1.37 4.62.1.34.13.4.27.82c.19.55.4 1.1.61 1.65.43 1.1.9 2.19 1.39 3.28.49 1.09 1.02 2.16 1.57 3.22.37.73.76 1.45 1.15 2.16l1.11-.36c1.06-.33 2.13-.6 3.18-.89 2.11-.58 4.19-1.13 6.24-1.54 2.04-.42 4-.85 5.89-1.16.87-.13 1.71-.26 2.53-.38V5.5c0-3.02-2.47-5.5-5.5-5.5H28.59c-3.02 0-5.5 2.47-5.5 5.5v43.93c0 .69.13 1.34.37 1.95.07-.4.15-.8.23-1.2ZM2.24 65.81c.23-.24.5-.42.81-.55.31-.13.66-.19 1.03-.19.32 0 .58.04.79.1.21.07.38.14.51.22s.25.15.33.22c.09.07.17.1.26.1.08 0 .14-.02.19-.05s.08-.07.11-.11l.5-.68c-.31-.31-.69-.57-1.13-.76-.44-.19-.96-.29-1.55-.29-.6 0-1.16.09-1.66.29s-.93.47-1.3.83-.64.78-.85 1.28c-.2.5-.3 1.04-.31 1.64 0 .59.08 1.13.26 1.63.17.5.43.93.76 1.29s.73.64 1.2.85c.47.21 1 .31 1.59.31.66 0 1.23-.1 1.7-.31s.87-.51 1.2-.91l-.58-.64a.288.288 0 0 0-.21-.09c-.05 0-.09 0-.13.03-.04.02-.08.05-.12.08-.12.11-.24.2-.37.28-.12.07-.25.14-.39.18-.14.05-.29.08-.45.1-.16.02-.35.03-.55.03-.34 0-.65-.07-.94-.2-.29-.13-.55-.31-.76-.55-.21-.24-.38-.53-.51-.88-.12-.35-.18-.75-.18-1.19 0-.43.07-.82.2-1.17.13-.34.31-.64.53-.88Zm14.03.53c.19.5.28 1.04.28 1.62 0 .58-.11 1.12-.3 1.62a3.725 3.725 0 0 1-2.11 2.12c-.5.2-1.04.3-1.65.29-.6 0-1.15-.11-1.64-.32-.5-.21-.92-.49-1.27-.86s-.62-.8-.81-1.3c-.19-.5-.28-1.04-.28-1.62 0-.58.1-1.12.3-1.62.2-.5.47-.92.83-1.28s.78-.64 1.28-.84c.5-.2 1.05-.3 1.65-.29.6 0 1.15.11 1.64.32a3.722 3.722 0 0 1 2.07 2.15Zm-1.24 1.61c0-.44-.05-.83-.16-1.18s-.28-.64-.49-.89c-.21-.24-.48-.43-.78-.56-.31-.13-.66-.2-1.05-.2s-.74.06-1.05.19c-.31.13-.58.31-.8.55-.22.24-.39.53-.51.88s-.18.74-.18 1.17c0 .44.05.83.17 1.17.11.35.28.64.5.88.22.24.48.43.79.56.31.13.66.2 1.05.2s.74-.06 1.05-.18c.31-.13.57-.31.79-.55.22-.24.39-.53.5-.88.12-.35.18-.74.18-1.17Zm11.14-3.89s-.09.01-.13.03c-.04.01-.07.04-.1.07a.73.73 0 0 0-.09.13l-2.38 4.39c-.06.12-.12.24-.18.37s-.11.26-.16.39c-.05-.13-.1-.26-.15-.38-.05-.13-.11-.25-.17-.37l-2.34-4.43a.485.485 0 0 0-.09-.13.259.259 0 0 0-.11-.07c-.04-.02-.08-.02-.13-.03s-.1 0-.17 0h-1.12l-.06 7.94h1.3l.04-5.12v-.32c0-.12-.01-.23-.03-.35l2.4 4.54c.05.1.12.18.21.24s.19.09.31.09h.2c.12 0 .22-.03.31-.08.09-.06.16-.14.22-.24l2.43-4.49-.03.35c0 .11-.01.22-.01.31l-.04 5.13h1.3l.06-7.94h-1.29Zm9.52 1.57c.12.31.18.65.17 1.02 0 .38-.07.74-.2 1.06-.13.32-.33.59-.58.82-.26.23-.58.41-.97.53-.39.13-.84.19-1.35.18h-1.11l-.02 2.79h-1.48l.06-7.96 2.59.02c.53 0 .99.07 1.38.2.39.13.71.3.96.53.25.23.44.49.55.81Zm-1.3 1.01c0-.21-.03-.41-.09-.58-.06-.17-.16-.32-.29-.44s-.3-.22-.5-.28c-.2-.07-.44-.1-.71-.1h-1.11l-.02 2.85h1.11c.27 0 .51-.02.71-.09.2-.07.37-.16.5-.29.13-.13.23-.28.3-.46.07-.18.1-.38.1-.61Zm6.76-2.49 3.07 7.97h-1.14a.546.546 0 0 1-.5-.35L42 70.14l-3.29-.02-.61 1.62a.54.54 0 0 1-.18.23.49.49 0 0 1-.32.1h-1.15l3.18-7.93h1.51Zm.48 4.95-.95-2.65c-.04-.12-.09-.26-.14-.42-.05-.16-.1-.33-.15-.52-.05.19-.1.36-.16.52-.05.16-.1.3-.15.42l-.99 2.63 2.53.02Zm9.93-.04v.34c0 .12.01.25.03.38l-4.13-5.35c-.04-.05-.08-.09-.11-.12a.305.305 0 0 0-.1-.07.213.213 0 0 0-.12-.03c-.04 0-.1 0-.16-.01h-.78l-.06 7.94h1.3l.03-4.87v-.32c0-.12-.01-.23-.02-.35l4.12 5.32c.07.1.15.16.22.2.08.04.17.06.29.06h.76l.06-7.94h-1.3l-.03 4.82Zm8.85-4.66c-.08.07-.14.14-.18.22l-1.46 2.64c-.09.15-.16.3-.22.44s-.12.28-.16.42c-.05-.14-.11-.28-.17-.42-.06-.14-.13-.29-.22-.45l-1.44-2.67a.749.749 0 0 0-.19-.24.536.536 0 0 0-.3-.1h-1.3l2.86 4.87-.02 3.09h1.48l.02-3.08 2.93-4.84h-1.31a.41.41 0 0 0-.31.09Zm8.19-.05h-1.48l-.06 7.94 4.66.03V71.1l-3.17-.02.05-6.73Zm12.18 2.44c.19.5.28 1.04.28 1.62 0 .58-.1 1.12-.3 1.62a3.725 3.725 0 0 1-2.1 2.12c-.5.2-1.04.3-1.65.29-.6 0-1.15-.11-1.64-.32-.5-.21-.92-.49-1.27-.86s-.62-.8-.81-1.3c-.19-.5-.28-1.04-.28-1.62 0-.58.1-1.12.3-1.62.2-.5.47-.92.83-1.28s.78-.64 1.28-.84c.5-.2 1.05-.3 1.65-.29s1.15.11 1.64.32a3.722 3.722 0 0 1 2.07 2.15Zm-1.24 1.61c0-.44-.05-.83-.16-1.17-.11-.35-.28-.64-.49-.89-.21-.24-.48-.43-.78-.56-.31-.13-.66-.2-1.05-.2s-.74.06-1.05.18c-.31.13-.58.31-.8.55s-.39.53-.51.88-.18.74-.18 1.17c0 .44.05.83.17 1.18.11.35.28.64.5.88.22.24.48.43.79.56.31.13.66.2 1.05.2s.74-.06 1.05-.18c.31-.13.57-.31.79-.55.22-.24.39-.53.5-.88.12-.35.18-.74.18-1.17Zm5.55-2c.23-.24.5-.43.81-.56.32-.13.67-.19 1.07-.19.24 0 .46.02.64.05.18.03.35.08.5.13.15.05.28.11.41.18l.36.21c.09.06.18.09.27.09.14 0 .25-.07.34-.2l.43-.67c-.33-.31-.73-.56-1.2-.76-.47-.2-1.03-.3-1.68-.3-.63 0-1.21.09-1.72.28-.51.19-.95.47-1.31.83-.36.36-.64.78-.84 1.28-.2.5-.3 1.04-.3 1.64 0 .59.09 1.13.29 1.63.2.5.47.93.82 1.29s.77.64 1.26.85c.49.21 1.02.31 1.6.31.33 0 .63-.01.91-.05.28-.03.55-.08.8-.15.25-.07.48-.16.7-.26.22-.11.43-.23.63-.38l.02-3.22-2.64-.02v.84c0 .08.02.14.07.2.05.05.13.08.22.08h1l-.01 1.45c-.22.1-.46.19-.71.24-.25.06-.54.09-.87.09-.38 0-.72-.07-1.04-.2-.32-.13-.59-.32-.82-.57-.23-.25-.41-.55-.53-.91-.13-.36-.19-.77-.18-1.22 0-.42.07-.81.19-1.15.12-.34.3-.64.52-.88ZM100 68.55c0 .58-.11 1.12-.3 1.62-.2.49-.47.92-.83 1.28-.35.36-.78.64-1.28.84-.5.2-1.04.3-1.65.29-.6 0-1.15-.11-1.64-.32-.5-.21-.92-.49-1.27-.86s-.62-.8-.81-1.3c-.19-.5-.28-1.04-.28-1.62 0-.58.1-1.12.3-1.62a3.725 3.725 0 0 1 2.11-2.12c.5-.2 1.05-.3 1.65-.29.6 0 1.15.11 1.64.32a3.722 3.722 0 0 1 2.07 2.15c.19.5.28 1.04.28 1.62Zm-1.52-.01c0-.44-.05-.83-.16-1.17-.11-.35-.28-.64-.49-.89-.22-.24-.48-.43-.78-.56-.31-.13-.66-.2-1.05-.2s-.74.06-1.05.18c-.31.13-.58.31-.8.55-.22.24-.39.53-.51.88s-.18.74-.18 1.17c0 .44.05.83.17 1.18.11.35.28.64.5.88.22.24.48.43.79.56.31.13.66.2 1.05.2s.74-.06 1.05-.18c.31-.13.57-.31.79-.55.22-.24.39-.53.5-.88.12-.34.18-.74.18-1.17Z"/></svg>