<svg xmlns="http://www.w3.org/2000/svg" style="width:5rem;height:5rem;margin:10px" viewBox="0 0 75.89 100"><path d="M45.01 5.3H39.1V0h10.83c1.02 22.49 20.29 25.14 20.29 25.14v7.58h-5.08v-3.1C47.56 23.95 45.01 5.31 45.01 5.31Zm-36 24.32C26.61 23.94 29.04 5.3 29.04 5.3h6.02V0H24.25C23.23 22.49 3.96 25.14 3.96 25.14v7.58h5.05v-3.1Zm15.24 38.61h10.81v-5.3h-6.02S26.62 44.32 9.01 38.62v-3.1H3.96v7.58s19.27 2.65 20.29 25.14Zm45.97-25.14v-7.58h-5.08v3.1c-17.58 5.7-20.13 24.31-20.13 24.31H39.1v5.3h10.83c1.02-22.49 20.29-25.14 20.29-25.14ZM4.27 80.47H0v19.2h11.77v-3.63h-7.5V80.48ZM27.4 92.56c.06.99-.08 1.97-.42 2.9-.34.92-.87 1.77-1.55 2.47-.68.7-1.5 1.25-2.41 1.6-.9.36-1.87.51-2.84.46-.94.06-1.89-.09-2.77-.43-.88-.34-1.69-.87-2.36-1.55a6.844 6.844 0 0 1-1.96-5.21c-.06-1 .09-1.99.43-2.92.35-.93.89-1.78 1.58-2.48.7-.7 1.53-1.24 2.45-1.59.92-.34 1.9-.49 2.88-.41a6.541 6.541 0 0 1 5.04 2c.66.67 1.16 1.48 1.49 2.37.33.89.47 1.84.41 2.79Zm-4.51-.03c0-2.04-.78-4.16-2.6-4.16s-2.76 2.22-2.78 4.24c.01 2.36.97 4.14 2.78 4.14s2.6-1.67 2.6-4.22Zm12.32-6.2c-.66.52-1.15 1.25-1.38 2.07l-.18-2.65h-3.62v4.59L30 99.67h4.25v-7c-.03-.32-.03-.64 0-.95.15-.68.54-1.27 1.1-1.67.56-.4 1.24-.57 1.92-.48.38-.03.76-.03 1.15 0v-4.08c-.29-.03-.59-.03-.89 0a3.9 3.9 0 0 0-2.31.85Zm17.45 6.05c.04.57.04 1.15 0 1.72H43.7c.13 1.78 1.88 2.65 3.88 2.65 1.28.02 2.56-.19 3.78-.61l.55 2.94c-1.58.62-3.26.92-4.95.87-.95.11-1.92 0-2.83-.3-.91-.31-1.74-.82-2.44-1.5a6.713 6.713 0 0 1-2.02-5.28c-.06-.96.07-1.92.38-2.83.32-.91.82-1.73 1.47-2.43.65-.7 1.43-1.26 2.3-1.63.87-.38 1.81-.57 2.75-.56.87-.01 1.73.17 2.52.52.79.36 1.5.88 2.08 1.54s1.01 1.44 1.27 2.28c.26.84.34 1.73.23 2.61Zm-3.93-1.25c.04-.7-.19-1.39-.64-1.91-.45-.53-1.09-.85-1.78-.9-.7.05-1.36.37-1.84.89s-.76 1.2-.77 1.92h5.03Zm22.55-5.73c-.91 0-1.81.23-2.6.69-.71.43-1.33 1.01-1.8 1.7-.32-.74-.84-1.36-1.51-1.79-.67-.43-1.45-.64-2.24-.6-.82-.03-1.63.17-2.36.56s-1.34.97-1.78 1.67l-.18-1.88h-3.59v4.46l-.03 9.47h4.14v-8.25c-.01-.38.04-.75.16-1.11.15-.43.41-.81.77-1.08.36-.27.79-.43 1.23-.46 1.35 0 1.98 1.19 1.98 2.94v7.95h4.14V91.5c0-.37.05-.75.13-1.11.14-.43.4-.81.75-1.08s.78-.42 1.23-.43c1.38 0 2.03 1.19 2.03 3.18v7.61h4.14v-8.19c0-4.19-2.01-6.07-4.61-6.07Z"/></svg>