<svg xmlns="http://www.w3.org/2000/svg" style="width:5rem;height:5rem;margin:10px" viewBox="0 0 42.31 50"><path fill-rule="evenodd" d="M13.46 23.08C6.03 23.08 0 29.11 0 36.54S6.03 50 13.46 50s13.46-6.03 13.46-13.46-6.03-13.46-13.46-13.46ZM24.98 5.33c-1.88 2.77-5.11 7.71-7.95 12.9a1.923 1.923 0 0 1-3.37-1.85C18.08 8.3 23.44.81 23.44.81a1.921 1.921 0 0 1 3.16.04s3.9 5.78 4.03 5.99c2.78 4.31 6.38 10.28 8.82 15.71 1.73 3.86 2.86 7.48 2.86 10.14 0 8.06-5.52 14.84-12.98 16.76a1.92 1.92 0 0 1-2.34-1.38 1.92 1.92 0 0 1 1.38-2.34c5.8-1.5 10.1-6.77 10.1-13.04 0-2.25-1.05-5.29-2.52-8.56-2.36-5.26-5.85-11.03-8.54-15.2-.08-.12-1.33-1.98-2.42-3.59ZM13.46 26.92c5.31 0 9.62 4.31 9.62 9.62s-4.31 9.62-9.62 9.62-9.62-4.31-9.62-9.62 4.31-9.62 9.62-9.62Zm0 13.46a1.92 1.92 0 1 1-.001 3.841 1.92 1.92 0 0 1 .001-3.841Zm-1.92-9.58v5.73a1.92 1.92 0 0 0 3.84 0V30.8a1.92 1.92 0 0 0-3.84 0Z"/></svg>