<svg xmlns="http://www.w3.org/2000/svg" style="width:5rem;height:5rem;margin:10px" viewBox="0 0 135.6 40"><path d="M130.58 0H5.02C2.26 0 0 2.25 0 5v30c0 2.75 2.26 5 5.02 5h125.56c2.76 0 5.02-2.25 5.02-5V5c0-2.75-2.26-5-5.02-5Zm4.22 35c0 2.32-1.89 4.2-4.22 4.2H5.02C2.69 39.2.8 37.32.8 35V5C.8 2.68 2.7.8 5.02.8h125.56c2.33 0 4.22 1.88 4.22 4.2v30ZM33.7 24.93c-.02.09-.53 1.84-1.79 3.62-1.05 1.57-2.16 3.1-3.91 3.13-1.7.04-2.27-1-4.23-1s-2.58.97-4.21 1.04c-1.67.06-2.94-1.67-4.03-3.23-2.18-3.17-3.88-8.94-1.6-12.86 1.1-1.92 3.11-3.16 5.26-3.2 1.67-.03 3.22 1.12 4.25 1.12s2.92-1.38 4.9-1.18c.83.02 3.18.33 4.7 2.53-.12.07-2.8 1.64-2.77 4.86.03 3.86 3.39 5.14 3.44 5.15ZM23.24 12.09c-.19-1.45.54-3 1.35-3.94.92-1.07 2.5-1.89 3.77-1.94.17 1.51-.43 3-1.31 4.09-.92 1.08-2.38 1.9-3.81 1.79ZM46.9 18.2l-4.3 13.31h2.22l1.19-3.91h4.34l1.25 3.91h2.28L49.56 18.2H46.9Zm-.51 7.76 1.11-3.47c.29-1.11.5-1.94.63-2.51h.04c.33 1.32.55 2.15.67 2.51l1.13 3.47h-3.59Zm14.58-4.24c-1.45 0-2.54.57-3.25 1.72h-.04l-.12-1.52h-1.88c.05 1.08.08 2.13.08 3.16v10.35h2.14v-5.05h.04c.56.91 1.47 1.36 2.74 1.36 1.18 0 2.16-.42 2.96-1.26.89-.95 1.33-2.24 1.33-3.87 0-1.46-.38-2.64-1.14-3.53-.76-.9-1.71-1.34-2.85-1.34Zm1.13 7.4c-.45.62-1.08.93-1.88.93-.69 0-1.25-.24-1.68-.72-.43-.48-.64-1.07-.64-1.77v-1.6c0-.17.03-.39.1-.65.13-.57.41-1.02.84-1.37.43-.35.91-.52 1.44-.52.78 0 1.4.32 1.86.95.42.61.63 1.38.63 2.31 0 1.01-.22 1.83-.67 2.45Zm9.95-7.4c-1.46 0-2.54.57-3.25 1.72h-.04l-.12-1.52h-1.88c.05 1.08.08 2.13.08 3.16v10.35h2.14v-5.05h.04c.55.91 1.47 1.36 2.74 1.36 1.18 0 2.16-.42 2.95-1.26.89-.95 1.33-2.24 1.33-3.87 0-1.46-.38-2.64-1.14-3.53-.76-.9-1.71-1.34-2.85-1.34Zm1.13 7.4c-.45.62-1.08.93-1.88.93-.69 0-1.25-.24-1.68-.72-.43-.48-.64-1.07-.64-1.77v-1.6c0-.17.03-.39.1-.65.13-.57.41-1.02.84-1.37.43-.35.91-.52 1.44-.52.78 0 1.4.32 1.86.95.42.61.64 1.38.64 2.31 0 1.01-.22 1.83-.67 2.45Zm14.44-3.65c.54.62.81 1.39.81 2.31 0 1.13-.39 2.05-1.19 2.76-.87.78-2.08 1.16-3.64 1.16-1.44 0-2.59-.28-3.46-.83l.5-1.78c.94.57 1.97.85 3.1.85.81 0 1.43-.18 1.89-.54.45-.36.67-.85.67-1.45 0-.54-.18-.99-.56-1.36-.37-.37-.98-.71-1.84-1.03-2.34-.87-3.51-2.14-3.51-3.82 0-1.09.41-1.99 1.23-2.69.82-.7 1.91-1.05 3.27-1.05 1.22 0 2.23.21 3.03.63l-.54 1.74c-.75-.41-1.61-.61-2.56-.61-.75 0-1.34.18-1.76.55-.36.33-.54.73-.54 1.21 0 .53.2.96.61 1.3.36.32 1 .66 1.94 1.03 1.15.46 1.99 1 2.54 1.62Zm5.54-3.56h2.36v1.6h-2.36v4.66c0 1.18.42 1.78 1.25 1.78.38 0 .7-.03.95-.1l.06 1.62c-.42.16-.98.24-1.67.24-.85 0-1.51-.26-1.98-.77-.48-.51-.71-1.38-.71-2.59v-4.84h-1.41v-1.6h1.41v-1.76l2.1-.63v2.39Zm8.36-.19c-1.47 0-2.64.47-3.5 1.42-.87.95-1.3 2.16-1.3 3.65s.42 2.6 1.26 3.53c.84.93 1.97 1.4 3.38 1.4s2.65-.49 3.53-1.46c.85-.95 1.27-2.16 1.27-3.63s-.41-2.61-1.23-3.51c-.86-.93-2-1.4-3.41-1.4Zm1.83 7.28c-.46.78-1.11 1.17-1.92 1.17s-1.48-.38-1.94-1.15c-.38-.63-.57-1.39-.57-2.28s.19-1.68.57-2.32c.45-.77 1.1-1.15 1.96-1.15s1.47.38 1.92 1.15c.38.63.57 1.39.57 2.28s-.2 1.65-.59 2.3Zm9.24-7.28c.2 0 .38.01.54.04v2.03a3.63 3.63 0 0 0-.67-.06c-.75 0-1.34.28-1.75.85-.36.5-.53 1.13-.53 1.9v5.03h-2.14l.02-6.57c0-1.11-.03-2.11-.08-3.02h1.87l.08 1.84h.06c.23-.63.58-1.14 1.07-1.52.48-.34.99-.51 1.55-.51Zm6.1-.02c-1.41 0-2.54.51-3.37 1.54-.79.96-1.19 2.17-1.19 3.61s.43 2.65 1.28 3.52c.85.88 2.03 1.31 3.52 1.31 1.24 0 2.32-.2 3.23-.59l-.33-1.48c-.78.3-1.65.45-2.6.45-.86 0-1.56-.22-2.1-.67-.6-.5-.91-1.22-.93-2.17h6.43c.05-.26.08-.59.08-.97 0-1.2-.28-2.2-.85-3.02-.71-1.03-1.77-1.54-3.15-1.54Zm-1.86 2.35c.43-.58 1.01-.87 1.71-.87.77 0 1.34.3 1.71.89.29.46.43 1.01.42 1.64h-4.46c.07-.64.28-1.2.63-1.66ZM48.21 12.68c.71-.6 1.06-1.48 1.06-2.66 0-1.05-.33-1.85-.98-2.42-.58-.5-1.45-.75-2.6-.75-.65 0-1.25.05-1.81.14v6.43c.43.05.94.08 1.54.08 1.21 0 2.14-.27 2.8-.82Zm-3.28-4.93c.23-.05.52-.07.85-.07.78 0 1.37.2 1.78.61.41.41.61.99.61 1.76 0 .85-.22 1.5-.66 1.95-.44.45-1.06.67-1.87.67-.34 0-.58 0-.71-.03V7.75Zm7.95.89c-.72 0-1.29.23-1.72.7s-.64 1.06-.64 1.79.21 1.28.62 1.74c.41.46.97.69 1.66.69s1.3-.24 1.73-.72c.42-.47.62-1.06.62-1.78s-.2-1.28-.6-1.73c-.42-.46-.98-.69-1.68-.69Zm.9 3.58c-.23.38-.54.57-.94.57s-.73-.19-.96-.56c-.19-.31-.28-.68-.28-1.12s.09-.83.28-1.14c.22-.38.54-.56.97-.56s.72.19.94.56c.19.31.28.68.28 1.12s-.1.81-.29 1.13Zm9.28-3.49Zm-5.47 4.71L56.2 8.73h1.08l.54 2.24c.13.53.24 1.04.32 1.51h.02c.08-.39.21-.9.39-1.5l.67-2.25h.86l.64 2.2c.16.54.28 1.05.38 1.55h.03c.07-.48.18-1 .32-1.55l.57-2.2h1.03l-1.48 4.71h-.96L60 11.39c-.16-.51-.28-1.02-.38-1.52h-.02c-.09.52-.22 1.03-.38 1.52l-.65 2.05h-.98Zm8.91-3.95c-.31 0-.56.11-.76.34-.19.23-.29.5-.29.81v2.8H64.4v-3.37c0-.41-.01-.86-.04-1.35h.93l.05.74h.03c.12-.23.31-.42.55-.57.29-.18.6-.27.95-.27.44 0 .81.14 1.1.43.36.35.55.87.55 1.56v2.82h-1.05v-2.7c0-.83-.32-1.25-.95-1.25Zm4.91 3.95h-1.05V6.56h1.05v6.88Zm3.91-4.8c-.72 0-1.29.23-1.72.7s-.64 1.06-.64 1.79.21 1.28.62 1.74c.41.46.97.69 1.66.69s1.3-.24 1.73-.72c.42-.47.62-1.06.62-1.78s-.2-1.28-.6-1.73c-.42-.46-.98-.69-1.68-.69Zm.9 3.58c-.23.38-.54.57-.94.57s-.73-.19-.96-.56c-.19-.31-.28-.68-.28-1.12s.09-.83.28-1.14c.22-.38.54-.56.97-.56s.72.19.94.56c.19.31.28.68.28 1.12s-.1.81-.29 1.13Zm5.43.69h.03l.08.54h.95c-.05-.28-.07-.65-.07-1.12v-1.74c0-1.3-.62-1.95-1.86-1.95-.64 0-1.18.14-1.62.41l.21.69c.36-.23.77-.35 1.23-.35.66 0 .98.31.98.93v.09c-.88 0-1.56.14-2.04.45-.49.3-.73.74-.73 1.32 0 .38.12.7.37.96.27.28.63.43 1.08.43.6 0 1.06-.22 1.38-.65Zm-1.78-.85c0-.65.58-.97 1.74-.95v.73c0 .07 0 .13-.02.18-.05.23-.17.41-.36.56-.2.14-.41.22-.64.22-.21 0-.38-.06-.51-.18-.14-.12-.2-.31-.2-.55Zm8.77-5.49h-1.05v2.71h-.02c-.25-.43-.7-.64-1.33-.64-.58 0-1.06.22-1.46.66-.41.47-.61 1.09-.61 1.85 0 .71.19 1.29.56 1.74.38.45.85.67 1.42.67.71 0 1.22-.29 1.52-.86h.03l.05.76h.93c-.03-.39-.04-.81-.04-1.27V6.58Zm-1.05 4.89c0 .34-.1.62-.3.86-.21.26-.49.39-.83.39-.38 0-.69-.16-.92-.47-.22-.29-.32-.67-.32-1.13s.11-.88.34-1.19c.23-.31.53-.47.93-.47.27 0 .51.09.7.26.19.17.32.38.38.64.02.08.03.19.03.33v.79Zm7.74 2.1c.72 0 1.3-.24 1.73-.72.42-.47.62-1.06.62-1.78s-.2-1.28-.6-1.73c-.42-.46-.98-.69-1.68-.69s-1.29.23-1.72.7c-.43.47-.64 1.06-.64 1.79s.21 1.28.62 1.74c.41.46.97.69 1.66.69Zm-.93-3.59c.22-.38.54-.56.97-.56s.72.19.95.56c.19.31.28.68.28 1.12s-.1.81-.29 1.13c-.23.38-.54.57-.95.57s-.73-.19-.96-.56c-.19-.31-.28-.68-.28-1.12s.09-.83.28-1.14Zm4.83.11c0-.41-.01-.86-.04-1.35h.92l.05.74h.03c.12-.23.31-.42.55-.57.29-.18.61-.27.96-.27.44 0 .81.14 1.1.43.36.35.54.87.54 1.56v2.82h-1.05v-2.7c0-.83-.32-1.25-.96-1.25-.31 0-.56.11-.76.34-.2.23-.29.5-.29.81v2.8h-1.05v-3.37Zm9.01-.56h-.69v-.78h.69v-.86l1.03-.31v1.17h1.16v.79h-1.16v2.29c0 .58.21.87.61.87.19 0 .34-.02.47-.05l.03.8c-.21.08-.48.12-.82.12-.41 0-.74-.13-.97-.38-.23-.25-.35-.68-.35-1.27V9.53Zm5.75-.02c-.49 0-.82.24-1.01.74-.03.1-.05.23-.05.38v2.83h-1.05V6.57h1.05v2.84h.02c.33-.52.81-.78 1.42-.78.44 0 .8.14 1.08.43.36.36.54.88.54 1.58v2.8h-1.05v-2.68c0-.85-.32-1.27-.95-1.27Zm5.91 4.04c.61 0 1.14-.1 1.59-.29l-.16-.73c-.38.15-.81.22-1.28.22-.42 0-.77-.11-1.03-.33-.29-.25-.44-.6-.46-1.07h3.16c.03-.13.04-.29.04-.47 0-.59-.14-1.08-.42-1.48-.35-.5-.87-.76-1.55-.76s-1.25.25-1.66.76c-.39.47-.58 1.06-.58 1.78s.21 1.3.63 1.73c.42.43.99.64 1.73.64Zm-1.03-3.75c.21-.29.49-.43.84-.43.38 0 .66.15.84.44.14.23.21.49.2.8h-2.19c.03-.32.14-.59.31-.82Z"/></svg>