<svg xmlns="http://www.w3.org/2000/svg" style="width:5rem;height:5rem;margin:10px" viewBox="0 0 135.42 40"><path d="M130.4 0H5.02C2.26 0 0 2.25 0 5v30c0 2.75 2.26 5 5.02 5h125.39c2.76 0 5.02-2.25 5.02-5V5c0-2.75-2.26-5-5.02-5Zm4.21 35c0 2.32-1.89 4.2-4.21 4.2H5.02C2.7 39.2.81 37.32.81 35V5C.8 2.68 2.69.8 5.02.8h125.39c2.32 0 4.21 1.88 4.21 4.2v30ZM42.39 12.23c-.61-.6-.91-1.35-.91-2.24s.3-1.63.91-2.23c.61-.6 1.35-.9 2.21-.9.43 0 .84.09 1.23.25.39.17.71.39.94.67l-.52.53c-.4-.47-.95-.71-1.65-.71-.63 0-1.18.22-1.65.66-.46.45-.69 1.02-.69 1.73s.23 1.29.69 1.73c.47.44 1.01.66 1.65.66.67 0 1.23-.23 1.68-.67.29-.29.46-.7.5-1.22H44.6v-.72h2.91c.04.16.05.31.05.45 0 .83-.25 1.5-.74 2-.57.59-1.31.89-2.21.89s-1.61-.3-2.21-.9Zm9.8.76h-3.51V7h3.51v.74h-2.74v1.9h2.47v.72h-2.47v1.9h2.74V13Zm2.48 0V7.73h-1.68v-.74h4.13v.74h-1.68v5.26h-.77Zm6.23 0h-.77V7h.77v5.99Zm2.66 0V7.73h-1.69v-.74h4.14v.74h-1.69v5.26h-.77Zm8.08.13c.88 0 1.61-.3 2.2-.91.59-.6.89-1.35.89-2.23s-.29-1.61-.89-2.22c-.59-.61-1.33-.91-2.2-.91s-1.62.3-2.21.91c-.59.6-.89 1.35-.89 2.23s.29 1.62.89 2.23c.59.61 1.33.91 2.21.91ZM70 8.26c.45-.45.99-.67 1.64-.67s1.19.22 1.63.67c.45.45.67 1.02.67 1.72s-.23 1.28-.67 1.72c-.44.45-.99.67-1.63.67s-1.19-.23-1.64-.67c-.45-.45-.67-1.02-.67-1.72s.23-1.28.67-1.72Zm6.59 4.72h-.77V6.99h.94l2.92 4.66h.03l-.03-1.15V6.99h.77v5.99h-.81l-3.06-4.89h-.03l.03 1.16v3.73Zm-22.6 10.06c.06.32.1.71.1 1.13 0 1.35-.37 3.03-1.57 4.22-1.17 1.21-2.65 1.85-4.62 1.85-3.65 0-6.72-2.96-6.72-6.61s3.07-6.61 6.72-6.61c2.02 0 3.46.79 4.54 1.82l-1.28 1.27c-.77-.73-1.82-1.29-3.26-1.29-2.66 0-4.75 2.14-4.75 4.8s2.09 4.8 4.75 4.8c1.73 0 2.71-.69 3.35-1.32.52-.52.86-1.26.98-2.27H47.9v-1.81h6.09Zm14.36-1.3c-2.36 0-4.28 1.79-4.28 4.25s1.92 4.25 4.28 4.25 4.29-1.81 4.29-4.25-1.92-4.25-4.29-4.25Zm0 6.83c-1.29 0-2.4-1.06-2.4-2.58s1.11-2.58 2.4-2.58 2.41 1.04 2.41 2.58-1.12 2.58-2.41 2.58Zm14.54-11.08h1.88v12.5h-1.88v-12.5Zm10.46 6.96c-.35-.95-1.44-2.71-3.65-2.71s-4.02 1.72-4.02 4.25c0 2.38 1.81 4.25 4.23 4.25 1.96 0 3.09-1.19 3.56-1.89l-1.45-.97c-.49.71-1.15 1.18-2.1 1.18s-1.63-.43-2.07-1.29l5.71-2.35-.2-.48Zm-5.82 1.42c-.05-1.64 1.28-2.48 2.23-2.48.74 0 1.38.37 1.59.9l-3.82 1.58Zm26.21-4.14c-1.35 0-2.76.59-3.34 1.91l1.66.69c.36-.69 1.01-.92 1.71-.92.97 0 1.96.58 1.97 1.61v.13c-.34-.2-1.06-.48-1.96-.48-1.79 0-3.61.98-3.61 2.81 0 1.67 1.46 2.75 3.11 2.75 1.26 0 1.95-.57 2.39-1.22h.06v.97h1.81v-4.79c0-2.22-1.66-3.46-3.81-3.46Zm-.23 6.85c-.61 0-1.46-.3-1.46-1.06 0-.97 1.06-1.34 1.98-1.34.82 0 1.21.18 1.71.42a2.274 2.274 0 0 1-2.23 1.98ZM102.12 17.5h-4.49V30h1.87v-4.74h2.62c2.08 0 4.11-1.5 4.11-3.88s-2.04-3.88-4.11-3.88Zm.05 6.03h-2.66v-4.29h2.66c1.4 0 2.19 1.16 2.19 2.14s-.8 2.14-2.19 2.14Zm-43.16-1.77c-2.36 0-4.28 1.79-4.28 4.25s1.92 4.25 4.28 4.25 4.28-1.81 4.28-4.25-1.92-4.25-4.28-4.25Zm0 6.83c-1.29 0-2.41-1.06-2.41-2.58s1.12-2.58 2.41-2.58 2.4 1.04 2.4 2.58-1.11 2.58-2.4 2.58Zm48.26-11.08h1.88v12.5h-1.88v-12.5Zm-27.45 5.2h-.06c-.42-.5-1.23-.95-2.24-.95-2.14 0-4.09 1.87-4.09 4.27s1.95 4.24 4.09 4.24c1.02 0 1.82-.45 2.24-.97h.06v.61c0 1.63-.87 2.5-2.28 2.5-1.15 0-1.86-.83-2.15-1.52l-1.63.68c.47 1.13 1.72 2.52 3.78 2.52 2.2 0 4.05-1.29 4.05-4.43v-7.64h-1.78v.69Zm-2.15 5.88c-1.29 0-2.37-1.08-2.37-2.56s1.08-2.59 2.37-2.59 2.28 1.09 2.28 2.59-1 2.56-2.28 2.56Zm46.46-6.58h2.08l-5.15 11.79h-1.96l1.91-4.21-3.34-7.57h2.02l2.22 5.42h.06l2.15-5.42Zm-92.01-.56-4.91 2.78-.1.05-14.55 8.24c-.82.46-1.54.42-2.01 0h-.01l-.07-.06c-.29-.31-.47-.79-.47-1.41V8.94c0-.62.17-1.1.47-1.41l.07-.07.02.02c.47-.42 1.18-.46 2 0l14.56 8.25.09.05 4.91 2.78c1.4.79 1.4 2.09 0 2.89Z"/></svg>