<svg xmlns="http://www.w3.org/2000/svg" style="width:5rem;height:5rem;margin:10px" viewBox="0 0 33.94 40"><path fill-rule="evenodd" d="M3.09 16.86v-1.33c0-.44.19-.86.52-1.16 2.53-2.23 9.01-7.96 12.34-10.9.58-.52 1.46-.52 2.04 0 3.33 2.94 9.81 8.67 12.34 10.9.33.29.52.71.52 1.16v19.84c0 .85-.69 1.54-1.54 1.54h-6.17a1.54 1.54 0 0 0 0 3.08h6.17c2.56 0 4.63-2.07 4.63-4.63V15.53c0-1.33-.57-2.59-1.56-3.47-2.53-2.23-9.01-7.96-12.34-10.9a4.622 4.622 0 0 0-6.13 0C10.57 4.1 4.09 9.83 1.56 12.06A4.64 4.64 0 0 0 0 15.53v1.33c0 2.31 3.09 2.31 3.09 0Zm0 7.71v-1.54c0-2.56 2.07-4.63 4.63-4.63s4.63 2.07 4.63 4.63v1.54c1.7 0 3.09 1.38 3.09 3.09v9.26c0 1.7-1.38 3.08-3.09 3.08H3.09A3.09 3.09 0 0 1 0 36.92v-9.26c0-1.7 1.38-3.09 3.09-3.09Zm9.26 3.09H3.09v9.26h9.26v-9.26Zm-3.09-3.09v-1.54a1.54 1.54 0 0 0-3.08 0v1.54h3.08Z"/></svg>