<svg xmlns="http://www.w3.org/2000/svg" style="width:5rem;height:5rem;margin:10px" viewBox="0 0 100 93.27"><path d="M11.6 81.7v.03c-2.52 0-4.29 1.74-4.29 4.23s1.77 4.26 4.3 4.26 4.31-1.76 4.31-4.26-1.8-4.26-4.32-4.26Zm.01 7.44c-1.77 0-3.04-1.28-3.04-3.16s1.25-3.17 3.03-3.17v.03c1.78 0 3.06 1.29 3.06 3.15s-1.27 3.16-3.05 3.16Zm15.85-7.44v.03c-2.46 0-4.19 1.74-4.19 4.25s1.73 4.25 4.22 4.25c.64.02 1.27-.09 1.86-.32.59-.24 1.12-.59 1.56-1.05l-.69-.72c-.34.35-.75.62-1.2.81-.45.18-.94.27-1.43.27-.77.02-1.52-.25-2.1-.76-.57-.51-.93-1.22-.98-1.98h6.93c.12-2.89-1.23-4.76-3.97-4.76Zm-2.95 3.75c.04-.74.37-1.44.93-1.94.55-.5 1.29-.77 2.04-.74 1.66 0 2.77 1.05 2.84 2.68h-5.8Zm55.67-3.94h2.87v8.64h-2.87v-1.4c-.28.48-.69.88-1.18 1.15-.49.27-1.05.4-1.61.38-1.89 0-3.12-1.29-3.12-3.31v-5.46h2.87v4.65c0 .97.55 1.56 1.4 1.56 1.01-.02 1.63-.81 1.63-1.95v-4.26ZM100 84.7v5.44h-2.87v-4.63c0-.99-.55-1.58-1.43-1.58-1.02.01-1.65.81-1.65 1.95v4.26h-2.87v-4.63c0-.99-.55-1.58-1.44-1.58-1.01.01-1.66.81-1.66 1.95v4.26h-2.85V81.5h2.85v1.42a3.11 3.11 0 0 1 2.83-1.53c1.42 0 2.47.72 2.9 1.93.24-.6.67-1.1 1.21-1.45a3.07 3.07 0 0 1 1.84-.48h.01c1.87 0 3.12 1.28 3.12 3.3ZM1.29 88.98h4.95v1.18H0V78.98h1.29v10Zm19.32-6.78c.55-.33 1.18-.5 1.82-.46v1.21c-1.79-.03-2.9 1.07-3.05 2.76v4.46h-1.26v-8.4h1.26v1.81c.26-.57.69-1.06 1.23-1.39ZM73 87.51c0 1.77-1.57 2.78-3.69 2.78-1.41.03-2.8-.4-3.93-1.23l.9-1.84c.9.65 1.98 1.02 3.1 1.07.53 0 .92-.19.92-.53 0-1.17-4.5-.59-4.5-3.58 0-1.8 1.53-2.8 3.58-2.8 1.28 0 2.53.35 3.63 1.01l-.97 1.85h-.01c-1.08-.57-2.06-.89-2.76-.88-.47 0-.82.17-.82.54 0 1.14 4.56.59 4.56 3.6Zm-12.35-6.1v.03c-.48-.01-.97.09-1.42.3-.45.21-.83.52-1.13.91v-1.12h-2.87v11.74h2.87v-4.21a3.197 3.197 0 0 0 2.63 1.21c2.42 0 4-1.74 4-4.37s-1.64-4.48-4.07-4.48Zm-.72 6.53h.02c-1.09.01-1.85-.85-1.85-2.13s.76-2.15 1.85-2.15 1.89.88 1.89 2.15-.77 2.13-1.91 2.13Zm-12.28-2.96v5.22h-1.26v-4.86c0-1.51-.89-2.4-2.36-2.4-1.76.04-2.77 1.31-2.77 3.13v4.12h-1.27v-4.86c0-1.51-.87-2.4-2.35-2.4-1.75.04-2.79 1.31-2.79 3.13v4.12h-1.24v-8.4h1.24v1.9c.56-1.31 1.71-1.95 3.24-1.95s2.7.8 3.05 2.19c.53-1.47 1.73-2.19 3.35-2.19v-.03c1.97 0 3.15 1.22 3.16 3.28Zm2.36-6h2.95v11.19h-2.95V78.98Zm-7.5-22.86 23.34-13.35v5.83L42.52 61.95l-12.26-7.01c-1.89-1.11-3.29-3.54-3.6-5.96v-1.92l15.85 9.07Zm-8.37-42.78L57.46 0l12.26 7.01c1.89 1.11 3.29 3.54 3.6 5.96v1.92L57.47 5.82 34.13 19.17v-5.83Zm41.59 11.48L52.39 11.47l5.1-2.92 23.34 13.34V35.9c-.03 2.18-1.45 4.59-3.41 6.07l-1.68.96V24.81ZM42.51 53.4 19.18 40.06V26.04c.02-2.18 1.45-4.59 3.41-6.07l1.68-.96v18.13l23.35 13.35-5.11 2.92Zm25.73-30.13 5.11 2.92v26.69l-12.26 7.01c-1.92 1.06-4.74 1.06-7.01.11l-1.68-.96 15.85-9.06v-26.7Zm-36.5 15.41-5.11-2.92V9.08l12.26-7.01c1.92-1.06 4.74-1.06 7.01-.11l1.68.96-15.85 9.07v26.7Z"/></svg>