<svg xmlns="http://www.w3.org/2000/svg" style="width:5rem;height:5rem;margin:10px" viewBox="0 0 40 36.92"><path fill-rule="evenodd" d="M18.46 26.15v9.23a1.54 1.54 0 0 0 3.08 0v-9.23a1.54 1.54 0 0 0-3.08 0ZM40 32.3c0-2.16-3.08-2.16-3.08 0a1.54 1.54 0 0 1-3.08 0v-6.15a1.54 1.54 0 0 0-3.08 0v6.15c0 2.55 2.07 4.62 4.62 4.62S40 34.85 40 32.3ZM4.62 33.84c.85 0 1.54-.69 1.54-1.54v-6.15a1.54 1.54 0 0 1 3.08 0v6.15c0 2.55-2.07 4.62-4.62 4.62S0 34.84 0 32.3c0-2.16 3.08-2.16 3.08 0 0 .85.69 1.54 1.54 1.54Zm7.69-7.69v6.15a1.54 1.54 0 0 0 3.08 0v-6.15a1.54 1.54 0 0 0-3.08 0Zm12.31 0v6.15a1.54 1.54 0 0 0 3.08 0v-6.15a1.54 1.54 0 0 0-3.08 0ZM7.7 18.46H4.62c-.85 0-1.54-.69-1.54-1.54V4.62a1.536 1.536 0 0 1 1.54-1.54h30.77a1.536 1.536 0 0 1 1.54 1.54v12.31c0 .85-.69 1.54-1.54 1.54H13.85a1.54 1.54 0 0 0 0 3.08h21.54c2.55 0 4.62-2.07 4.62-4.62V4.62c0-1.22-.49-2.4-1.35-3.26A4.601 4.601 0 0 0 35.4.01H4.62C3.4.01 2.22.5 1.36 1.36.49 2.23.01 3.4.01 4.62v12.31c0 2.55 2.07 4.62 4.62 4.62h3.08a1.54 1.54 0 0 0 0-3.08Zm24.62-6.15a1.54 1.54 0 1 1-.001 3.081 1.54 1.54 0 0 1 .001-3.081ZM7.7 15.39h18.46a1.54 1.54 0 0 0 0-3.08H7.69a1.54 1.54 0 0 0 0 3.08Z"/></svg>