<svg xmlns="http://www.w3.org/2000/svg" viewBox="0 0 38 39.9"><path fill="#e17335" fill-rule="evenodd" d="M38 16.2c0-2.2-1-4.3-2.8-5.7-3-2.3-8.2-6.3-11.7-9-2.6-2-6.3-2-9 0-3.5 2.7-8.7 6.7-11.7 9C1 11.8 0 13.9 0 16.2v16.5c0 4 3.3 7.2 7.3 7.2h23.4c4 0 7.3-3.2 7.3-7.2V16.2Z"/><path fill="#fff" fill-rule="evenodd" d="M30.1 14c-2-1.5-5.6-4.3-8-6.1-1.8-1.4-4.3-1.4-6.1 0-2.4 1.8-6 4.5-8 6.1-1.3.9-2 2.4-2 3.9V29c0 2.7 2.2 4.9 5 4.9h16c2.8 0 5-2.2 5-4.9V17.9c0-1.5-.7-2.9-1.9-3.9ZM30 29c0 1.6-1.3 2.9-3 2.9H11c-1.7 0-3-1.3-3-2.9V17.9c0-.9.4-1.8 1.2-2.3 2-1.5 5.6-4.3 8-6.1 1.1-.8 2.6-.8 3.7 0 2.4 1.8 6 4.5 8 6.1.7.5 1.1 1.4 1.1 2.3V29Zm-9.8-3.3c.7.6.7 1.7 0 2.3-.7.6-1.7.6-2.4 0-.6-.6-.6-1.7 0-2.3.7-.6 1.7-.6 2.4 0Zm3.9-2.7c.4.4.4 1 0 1.4-.4.4-1 .4-1.4 0-2-2-5.3-2-7.3 0-.4.4-1.1.4-1.4 0-.4-.4-.4-1 0-1.4 2.8-2.7 7.3-2.7 10.1 0Zm3.2-3.4c.4.4.4 1 0 1.4-.4.4-1 .4-1.4 0-3.8-3.7-9.9-3.7-13.7 0-.4.4-1.1.4-1.4 0-.4-.4-.4-1 0-1.4 4.6-4.5 11.9-4.5 16.5 0Z"/></svg>