<svg xmlns="http://www.w3.org/2000/svg" style="width:5rem;height:5rem;margin:10px" xml:space="preserve" viewBox="0 0 50 50"><path d="M25.6 11.5c2.2 0 5-1.5 6.7-3.6 1.5-1.8 2.6-4.4 2.6-7 0-.3 0-.7-.1-1-2.5.1-5.4 1.7-7.2 3.8-1.4 1.6-2.7 4.2-2.7 6.8 0 .4.1.8.1.9.1.1.3.1.6.1zM17.8 50c3 0 4.4-2.1 8.2-2.1 3.8 0 4.7 2 8.1 2 3.3 0 5.5-3.1 7.6-6.2 2.3-3.5 3.3-6.9 3.4-7.1-.2-.1-6.6-2.7-6.6-10.1 0-6.4 5-9.3 5.3-9.5-3.3-4.8-8.3-5-9.7-5-3.7 0-6.8 2.3-8.7 2.3-2.1 0-4.8-2.2-8-2.2-6.2.1-12.4 5.3-12.4 15 0 6 2.3 12.4 5.2 16.6 2.4 3.4 4.5 6.3 7.6 6.3z"/></svg>