<svg xmlns="http://www.w3.org/2000/svg" style="width:5rem;height:5rem;margin:10px" viewBox="0 0 45.86 50"><path fill-rule="evenodd" d="M34.27 45.12c4.6-2 6.75-6.66 7.47-11.73.67-4.78.13-9.96-.97-13.96-.81 1.33-1.89 2.39-3.08 3.27-.56.42-1.31.5-1.95.2a1.92 1.92 0 0 1-1.12-1.61c-.42-5.74-2.17-11.19-5.79-16.24-3.32 4.62-5.15 10.09-5.77 16.29-.07.71-.53 1.32-1.19 1.59-.66.27-1.41.15-1.96-.3-1.49-1.24-2.68-2.47-3.47-4.03-.48.53-1.23.77-1.96.55a1.918 1.918 0 0 1-1.31-2.38c.48-1.65 1.87-3.1 2.4-4.17.4-.8 1.29-1.22 2.16-1.01.87.21 1.48.98 1.48 1.87 0 1.32.23 2.36.63 3.23 1.2-6.1 3.64-11.48 7.52-16.02.39-.43.93-.67 1.5-.67s1.1.26 1.47.7c4.1 4.95 6.48 10.28 7.55 15.88.37-.87.58-1.89.58-3.12 0-.86.57-1.61 1.39-1.85s1.71.1 2.16.83c2.57 4.09 4.68 13.29 3.53 21.48C44.32 42.55 39.63 50 28.85 50c-2.2 0-2.9-2.24-1.1-3.5 1.8-1.26 2.96-2.59 3.53-4.05.65-1.66.51-3.46-.12-5.38-.73-2.23-2.11-4.6-3.88-7.11a1.924 1.924 0 0 1 3.15-2.21c3.59 5.1 5.6 9.78 5.03 13.86-.17 1.21-.55 2.38-1.18 3.52ZM13.46 23.08C6.03 23.08 0 29.11 0 36.54S6.03 50 13.46 50s13.46-6.03 13.46-13.46-6.03-13.46-13.46-13.46Zm0 3.85c5.31 0 9.62 4.31 9.62 9.62s-4.31 9.62-9.62 9.62-9.62-4.31-9.62-9.62 4.31-9.62 9.62-9.62Zm0 13.46a1.92 1.92 0 1 1-.001 3.841 1.92 1.92 0 0 1 .001-3.841Zm-1.92-9.58v5.73a1.92 1.92 0 0 0 3.84 0v-5.73a1.92 1.92 0 0 0-3.84 0Z"/></svg>