<svg xmlns="http://www.w3.org/2000/svg" style="width:5rem;height:5rem;margin:10px" viewBox="0 0 96.48 100"><path fill-rule="evenodd" d="M48.24 86.08h2.84v10.9h-2.84v-10.9Zm17.78 4.81c0-.36.33-.53.8-.53.68-.01 1.63.3 2.67.84s.94-1.79.94-1.79a6.87 6.87 0 0 0-3.5-.98c-1.98 0-3.46.97-3.46 2.72 0 2.91 4.34 2.34 4.34 3.48 0 .33-.37.51-.89.51a5.532 5.532 0 0 1-2.99-1.04l-.87 1.79c1.1.81 2.43 1.23 3.8 1.2 2.05 0 3.56-.98 3.56-2.71 0-2.92-4.4-2.4-4.4-3.5Zm-3.58 1.93c0 2.57-1.52 4.26-3.86 4.26-.49.02-.97-.08-1.41-.29-.44-.21-.83-.51-1.13-.89v4.1h-2.76V88.57h2.77v1.09c.29-.38.66-.68 1.09-.89.43-.21.9-.31 1.38-.29v-.03c2.35 0 3.92 1.8 3.92 4.37Zm-2.78-.08c0-1.24-.77-2.1-1.82-2.1s-1.79.85-1.79 2.1.73 2.09 1.79 2.09c1.09-.01 1.82-.84 1.82-2.09Zm17.7-.04c0 1.11-.59 1.88-1.57 1.9-.82 0-1.34-.57-1.34-1.52v-4.53h-2.77v5.32c0 1.96 1.18 3.22 3.01 3.22a2.987 2.987 0 0 0 2.69-1.49v1.37h2.77v-8.41h-2.79v4.15Zm16.11-4.26a3.008 3.008 0 0 0-2.94 1.88c-.42-1.18-1.43-1.88-2.8-1.88a2.998 2.998 0 0 0-2.74 1.49v-1.39h-2.75v8.41h2.75V92.8c0-1.11.62-1.89 1.6-1.9.86 0 1.39.57 1.39 1.54v4.51h2.77V92.8c0-1.11.61-1.89 1.59-1.9.86 0 1.38.57 1.38 1.54v4.51h2.76v-5.3c0-1.98-1.2-3.22-3.01-3.22ZM18.7 90.59v-1.78h-1.21v8.18h1.21v-4.34c.14-1.65 1.21-2.72 2.94-2.67V88.8a3.1 3.1 0 0 0-1.75.45c-.52.32-.94.79-1.19 1.36Zm11.63 2.78h-6.68c.06.74.4 1.43.95 1.93.55.5 1.28.76 2.02.74.47.01.94-.08 1.38-.26.44-.18.83-.45 1.16-.78l.67.7a4.401 4.401 0 0 1-3.3 1.34c-2.41 0-4.08-1.69-4.08-4.14s1.68-4.14 4.06-4.14v-.03c2.64 0 3.95 1.82 3.83 4.64Zm-1.09-.98c-.06-1.59-1.13-2.61-2.74-2.61-.72-.03-1.43.23-1.97.72s-.86 1.17-.89 1.89h5.6Zm13.68-3.65v.03c-1.57 0-2.72.7-3.23 2.13-.33-1.34-1.4-2.13-2.94-2.13s-2.58.62-3.13 1.9v-1.85h-1.2V97h1.2v-4.01c0-1.77 1-3.01 2.69-3.05 1.43 0 2.27.87 2.27 2.34v4.73h1.23V93c0-1.77.98-3.01 2.67-3.05 1.42 0 2.27.87 2.27 2.34v4.73h1.21v-5.08c0-2.01-1.14-3.19-3.05-3.19Zm-27.56 4.15c0 2.44-1.71 4.15-4.15 4.15s-4.15-1.72-4.15-4.15 1.71-4.12 4.15-4.12v-.03c2.43 0 4.15 1.71 4.15 4.15Zm-1.21.01c0-1.8-1.23-3.06-2.94-3.06v-.03c-1.72 0-2.94 1.25-2.94 3.09s1.23 3.08 2.94 3.08 2.94-1.28 2.94-3.08ZM1.24 86.09H0v10.89h6.02v-1.15H1.23v-9.74ZM24.16 65.9a34.077 34.077 0 0 1-9.98-24.09V19.99s0-.05.02-.08c.01-.02.03-.04.05-.06L48.17.02s.05-.02.08-.02.05 0 .08.02l33.75 19.72.17.1s.04.03.05.06c.01.02.02.05.02.08v21.83a34.077 34.077 0 0 1-34.07 34.07c-9.03 0-17.7-3.59-24.09-9.98Zm20.56 3.53s0-.05-.02-.08c-3.38-7.57-12.15-11.88-20.05-12.95-.03 0-.05 0-.08.01s-.05.03-.06.05c-.02.02-.02.05-.02.08s0 .06.02.08a27.97 27.97 0 0 0 8.58 8.71c3.47 2.24 7.38 3.68 11.47 4.22.03 0 .05 0 .08-.01.02-.01.05-.03.06-.05.01-.02.02-.05.02-.08Zm3.84-31.49 3.2 15.39s.02.06.05.08c.02.02.05.03.08.04.03 0 .06 0 .09-.02.03-.01.05-.04.06-.07a28.16 28.16 0 0 0 2.42-15.35c-.65-5.24-2.76-10.2-6.1-14.3-.01-.02-.03-.03-.05-.04-.02 0-.04-.01-.06-.01s-.04 0-.06.01c-.02 0-.04.02-.05.04a28.107 28.107 0 0 0-.15 35.28v-.02s.04.06.08.07c.03.01.07.01.1 0s.06-.03.07-.06c.02-.03.03-.06.03-.09V37.96s.01-.07.04-.1c.02-.03.06-.05.1-.05.04 0 .07 0 .1.03.03.02.05.05.06.09Zm23.45 18.61s0-.06-.03-.08c-.02-.02-.04-.04-.06-.05-.03-.01-.05-.02-.08-.01-7.88 1.07-16.66 5.37-20.05 12.95v-.02s-.03.06-.03.09.01.06.03.09c.02.02.04.04.06.05.02.01.05.01.08.01 4.09-.54 8.01-1.99 11.47-4.22a27.97 27.97 0 0 0 8.58-8.71c.02-.02.03-.05.03-.08Zm3.95-12.34c-8.25.72-16.01 5.83-20.2 12.8v.02s-.03.06-.02.1c0 .03.02.07.05.09.03.02.06.03.09.03s.07-.01.09-.03c5.27-3.6 12.21-5.81 18.54-6.02.03 0 .06 0 .08-.03a.18.18 0 0 0 .05-.07c.77-2.17 1.26-4.43 1.47-6.73v-.06c0-.02-.02-.04-.03-.06-.02-.02-.03-.03-.06-.04-.02 0-.04-.01-.07 0ZM20.9 38.55s.01.07.04.1.06.05.1.05c5.18.49 10.67 2.77 15.04 5.57.02.02.05.02.08.02s.06 0 .08-.02c.02-.01.04-.04.06-.06.01-.03.02-.05.01-.08-1.02-11.79 3.72-20.37 11.84-28.52a.15.15 0 0 1 .11-.04c.04 0 .08.02.11.04 8.12 8.16 12.84 16.73 11.84 28.52v-.02s-.01.06 0 .09.03.06.06.07c.02.02.05.02.08.02s.06 0 .08-.02c4.37-2.8 9.86-5.08 15.04-5.57.04 0 .07-.02.1-.05.03-.03.04-.06.04-.1v-14.7s0-.05-.02-.07a.12.12 0 0 0-.05-.05L48.35 7.84s-.05-.02-.08-.02-.05 0-.08.02L21 23.73s-.04.03-.05.05c-.01.02-.02.05-.02.07v14.7Zm1.09 12.66c6.33.22 13.27 2.43 18.54 6.02.03.02.06.03.09.03s.07-.01.09-.03c.03-.02.04-.05.05-.09 0-.03 0-.07-.02-.1-4.19-6.97-11.95-12.08-20.2-12.8v-.02h-.06c-.02 0-.04.02-.06.04-.02.02-.03.03-.04.06 0 .02-.01.04 0 .06.21 2.29.7 4.55 1.47 6.73 0 .03.03.05.05.07.02.02.05.03.08.03Z"/></svg>