<svg xmlns="http://www.w3.org/2000/svg" style="width:5rem;height:5rem;margin:10px" viewBox="0 0 27.69 40"><path fill-rule="evenodd" d="M12.31 38.46c0-5.95-4.82-10.77-10.77-10.77a1.54 1.54 0 0 0 0 3.08c4.25 0 7.69 3.44 7.69 7.69a1.54 1.54 0 0 0 3.08 0Zm6.15 0c0-9.35-7.58-16.92-16.92-16.92a1.54 1.54 0 0 0 0 3.08c7.65 0 13.85 6.2 13.85 13.85a1.54 1.54 0 0 0 3.08 0ZM0 16.92V4.62c0-1.22.49-2.4 1.35-3.26C2.22.49 3.39.01 4.61.01h18.46c1.22 0 2.4.49 3.26 1.35.87.87 1.35 2.04 1.35 3.26v30.77c0 1.22-.49 2.4-1.35 3.26-.87.87-2.04 1.35-3.26 1.35-2.2 0-2.27-3.08 0-3.08a1.536 1.536 0 0 0 1.54-1.54v-1.54h-1.54a1.54 1.54 0 0 1 0-3.08h1.54V9.23H3.08v7.69a1.54 1.54 0 0 1-3.08 0Zm6.15 21.54c0-2.55-2.07-4.62-4.62-4.62a1.54 1.54 0 0 0 0 3.08c.85 0 1.54.69 1.54 1.54a1.54 1.54 0 0 0 3.08 0ZM24.62 6.15V4.61a1.536 1.536 0 0 0-1.54-1.54H4.62a1.536 1.536 0 0 0-1.54 1.54v1.54h21.54Z"/></svg>