<svg xmlns="http://www.w3.org/2000/svg" style="width:5rem;height:5rem;margin:10px" xml:space="preserve" viewBox="0 0 50 50"><path d="M45.6 43.7c2.8-3.2 4.4-7.2 4.4-11.4 0-7.1-4.7-13.5-11.9-16.3-.9-9-9.1-16-19-16C8.6 0 0 7.9 0 17.7c0 4.2 1.6 8.1 4.4 11.3L.5 32.6c-.5.4-.6 1.1-.4 1.7.2.6.8 1 1.4 1H12C13.6 43.7 21.6 50 30.8 50h17.6c.6 0 1.2-.4 1.4-1 .2-.6.1-1.3-.4-1.7l-3.8-3.6zM7.7 27.9c-3-2.7-4.6-6.3-4.6-10.2 0-8 7.2-14.6 16.1-14.6 8.8 0 16 6.5 16 14.6 0 8-7.2 14.5-16 14.5H5.5l2.2-2c.3-.3.5-.7.5-1.2 0-.4-.2-.8-.5-1.1zm23.1 19c-7.5 0-14-5-15.6-11.6h3.9c9.9 0 18-7 19-15.9 5.3 2.5 8.8 7.4 8.8 12.9 0 3.8-1.7 7.6-4.6 10.3-.3.3-.5.7-.5 1.1 0 .4.2.8.5 1.1l2.2 2H30.8zM8.9 10.4c0-.9.7-1.6 1.6-1.6H28c.9 0 1.6.7 1.6 1.6 0 .9-.7 1.6-1.6 1.6H10.4c-.9 0-1.5-.7-1.5-1.6zm0 5.8c0-.9.7-1.6 1.6-1.6H28c.9 0 1.6.7 1.6 1.6s-.7 1.6-1.6 1.6H10.4c-.9 0-1.5-.7-1.5-1.6zm0 5.9c0-.9.7-1.6 1.6-1.6H28c.9 0 1.6.7 1.6 1.6 0 .9-.7 1.6-1.6 1.6H10.4c-.9-.1-1.5-.8-1.5-1.6z"/></svg>