<svg xmlns="http://www.w3.org/2000/svg" style="width:5rem;height:5rem;margin:10px" viewBox="0 0 50 50"><path fill-rule="evenodd" d="M11.54 23.08v23.08h26.92V28.85a1.92 1.92 0 0 1 3.84 0v19.23c0 1.06-.86 1.92-1.92 1.92H9.62a1.92 1.92 0 0 1-1.92-1.92v-25H1.92c-.64 0-1.23-.32-1.59-.84-.36-.53-.43-1.2-.19-1.79L7.83 1.21C8.12.48 8.83 0 9.62 0h30.77c.79 0 1.49.48 1.79 1.21l7.69 19.23c.24.59.16 1.26-.19 1.79-.36.53-.95.84-1.59.84H11.54Zm14.2 13.46h-4.58c-.67 0-1.29-.35-1.64-.91-.35-.57-.38-1.28-.08-1.87l3.85-7.69c.47-.95 1.63-1.33 2.58-.86.95.47 1.33 1.63.86 2.58l-2.45 4.91h4.58c.67 0 1.29.35 1.64.91.35.57.38 1.28.08 1.87l-3.85 7.69c-.47.95-1.63 1.33-2.58.86a1.926 1.926 0 0 1-.86-2.58l2.45-4.91ZM15.63 19.23l1.03-7.69H7.84l-3.08 7.69h10.86Zm4.91-7.69-1.03 7.69H30.5l-1.03-7.69h-8.94Zm21.63 0h-8.81l1.03 7.69h10.86l-3.08-7.69ZM10.92 3.85 9.38 7.7h7.78l.51-3.85h-6.76Zm10.64 0-.51 3.85h7.91l-.51-3.85h-6.89Zm10.77 0 .51 3.85h7.78l-1.54-3.85h-6.76Z"/></svg>