<svg xmlns="http://www.w3.org/2000/svg" style="width:5rem;height:5rem;margin:10px" xml:space="preserve" viewBox="0 0 50 50"><path d="M36.5 31.5c-1.1 0-2.1-.9-2.1-1.9 0-1.1.9-1.9 2.1-1.9 1.1 0 2.1.9 2.1 1.9 0 1-.9 1.9-2.1 1.9zm-23 0c-1.1 0-2.1-.9-2.1-1.9 0-1.1.9-1.9 2.1-1.9 1.1 0 2.1.9 2.1 1.9 0 1-1 1.9-2.1 1.9zm23.8-11.7 4.2-6.7c.2-.4.1-.9-.3-1.1-.4-.2-.9-.1-1.2.3l-4.2 6.8C32.5 17.7 28.9 17 25 17s-7.5.8-10.7 2.1l-4.2-6.8c-.2-.4-.8-.5-1.2-.3-.4.2-.6.7-.3 1.1l4.2 6.7C5.6 23.4.7 30.1 0 38.1h50c-.7-8-5.6-14.7-12.7-18.3z"/></svg>