<svg xmlns="http://www.w3.org/2000/svg" style="width:5rem;height:5rem;margin:10px" xml:space="preserve" viewBox="0 0 50 50"><path d="M42.7 7.3C38 2.6 31.6 0 25 0c-4.9 0-9.8 1.5-13.9 4.2C7 7 3.8 10.9 1.9 15.4 0 20-.5 25 .5 29.9c1 4.8 3.3 9.3 6.8 12.8s8 5.9 12.8 6.8c4.8 1 9.9.5 14.4-1.4 4.6-1.9 8.5-5.1 11.2-9.2 2.8-4.1 4.3-9 4.3-13.9 0-6.6-2.6-13-7.3-17.7zm-2.5 32.9c-4 4-9.5 6.3-15.2 6.3-4.2 0-8.4-1.3-11.9-3.6-3.5-2.4-6.3-5.7-7.9-9.6-1.6-4-2-8.3-1.2-12.5.8-4.2 2.9-8 5.9-11 3-3 6.8-5 11-5.9 4.2-.8 8.5-.4 12.4 1.2 3.9 1.6 7.3 4.4 9.6 7.9 2.4 3.5 3.6 7.7 3.6 11.9-.1 5.8-2.3 11.2-6.3 15.3zm-8.1-6.5v.7l-.3.6c-.2.2-.4.4-.6.5-.2.1-.5.2-.8.2-.4 0-.8-.1-1.1-.4-1.2-.9-2.7-1.4-4.3-1.4-1.5 0-3 .5-4.3 1.4-.4.3-.9.4-1.3.3-.5-.1-.9-.3-1.2-.7-.3-.4-.4-.9-.3-1.3 0-.2.1-.5.2-.7.1-.2.3-.4.5-.5 1.9-1.4 4.1-2.1 6.4-2.1 2.3 0 4.6.8 6.4 2.1.2.1.3.3.5.5.1.3.2.5.2.8zm5.4-5.4v.7l-.3.6c-.1.2-.3.3-.5.5-.2.1-.4.2-.7.2h-.7l-.6-.3c-2.8-2.1-6.2-3.2-9.6-3.2-3.5 0-6.9 1.1-9.6 3.2-.3.2-.7.4-1.1.4-.3 0-.6-.1-.8-.2s-.5-.3-.6-.5c-.3-.4-.4-.9-.3-1.3.1-.5.3-.9.7-1.2 3.4-2.5 7.5-3.9 11.8-3.9 4.2 0 8.4 1.4 11.8 3.9.2.1.3.3.5.5s-.1.4 0 .6zm3.4-5.9c.1.2.2.4.2.7 0 .2 0 .5-.1.7-.1.2-.2.4-.4.6-.2.2-.4.3-.6.4-.2.2-.4.2-.6.2-.2 0-.5 0-.7-.1-.2-.1-.4-.2-.6-.4-3.7-3.1-8.3-4.9-13.1-4.9-4.8 0-9.5 1.8-13.1 4.9-.4.3-.8.4-1.3.4s-.9-.3-1.2-.6c-.3-.3-.5-.8-.4-1.3 0-.5.2-.9.5-1.2C13.8 18.1 19.3 16 25 16c5.7 0 11.2 2.1 15.5 5.8.1.2.2.4.4.6z"/></svg>